<svg width="23" height="23" xmlns="http://www.w3.org/2000/svg" xmlns:xlink="http://www.w3.org/1999/xlink" xml:space="preserve" overflow="hidden"><g transform="translate(-466 -106)"><path d="M473.427 113.427 470.792 113.427 470.792 111.75 473.427 111.75 473.427 113.427ZM477.021 111.75 477.021 113.427 474.385 113.427 474.385 111.75 477.021 111.75ZM480.615 111.75 480.615 113.427 477.979 113.427 477.979 111.75 480.615 111.75ZM484.208 111.75 484.208 113.427 481.573 113.427 481.573 111.75 484.208 111.75ZM484.208 116.062 481.573 116.062 481.573 114.385 484.208 114.385 484.208 116.062ZM484.208 118.099 481.573 118.339 481.573 117.021 484.208 117.021 484.208 118.099ZM473.427 117.021 473.427 119.057 470.792 119.297 470.792 117.021 473.427 117.021ZM473.427 116.062 470.792 116.062 470.792 114.385 473.427 114.385 473.427 116.062ZM477.021 116.062 474.385 116.062 474.385 114.385 477.021 114.385 477.021 116.062ZM477.979 116.062 477.979 114.385 480.615 114.385 480.615 116.062 477.979 116.062ZM477.021 118.746 474.385 118.985 474.385 117.021 477.021 117.021 477.021 118.746ZM477.979 117.021 480.615 117.021 480.615 118.41 477.979 118.65 477.979 117.021ZM485.646 119.417 485.646 110.312 470.792 110.312 470.792 110.073C470.792 108.875 469.833 107.917 468.635 107.917 468.228 107.917 467.917 108.228 467.917 108.635 467.917 109.043 468.228 109.354 468.635 109.354 469.043 109.354 469.354 109.666 469.354 110.073L469.354 122.052C469.354 123.25 470.312 124.208 471.51 124.208L472.229 124.208 482.771 124.208 484.927 124.208C485.334 124.208 485.646 123.897 485.646 123.49 485.646 123.082 485.334 122.771 484.927 122.771L471.51 122.771C471.103 122.771 470.792 122.459 470.792 122.052L470.792 120.734 485.646 119.417Z" fill="#FFFFFF"/><path d="M473.667 125.646C473.667 126.44 473.023 127.083 472.229 127.083 471.435 127.083 470.792 126.44 470.792 125.646 470.792 124.852 471.435 124.208 472.229 124.208 473.023 124.208 473.667 124.852 473.667 125.646Z" fill="#FFFFFF"/><path d="M484.208 125.646C484.208 126.44 483.565 127.083 482.771 127.083 481.977 127.083 481.333 126.44 481.333 125.646 481.333 124.852 481.977 124.208 482.771 124.208 483.565 124.208 484.208 124.852 484.208 125.646Z" fill="#FFFFFF"/></g></svg>