<svg width="23" height="23" xmlns="http://www.w3.org/2000/svg" xmlns:xlink="http://www.w3.org/1999/xlink" xml:space="preserve" overflow="hidden"><g transform="translate(-572 -145)"><path d="M579.427 152.427 576.792 152.427 576.792 150.75 579.427 150.75 579.427 152.427ZM583.021 150.75 583.021 152.427 580.385 152.427 580.385 150.75 583.021 150.75ZM586.615 150.75 586.615 152.427 583.979 152.427 583.979 150.75 586.615 150.75ZM590.208 150.75 590.208 152.427 587.573 152.427 587.573 150.75 590.208 150.75ZM590.208 155.062 587.573 155.062 587.573 153.385 590.208 153.385 590.208 155.062ZM590.208 157.099 587.573 157.339 587.573 156.021 590.208 156.021 590.208 157.099ZM579.427 156.021 579.427 158.057 576.792 158.297 576.792 156.021 579.427 156.021ZM579.427 155.062 576.792 155.062 576.792 153.385 579.427 153.385 579.427 155.062ZM583.021 155.062 580.385 155.062 580.385 153.385 583.021 153.385 583.021 155.062ZM583.979 155.062 583.979 153.385 586.615 153.385 586.615 155.062 583.979 155.062ZM583.021 157.746 580.385 157.985 580.385 156.021 583.021 156.021 583.021 157.746ZM583.979 156.021 586.615 156.021 586.615 157.41 583.979 157.65 583.979 156.021ZM591.646 158.417 591.646 149.312 576.792 149.312 576.792 149.073C576.792 147.875 575.833 146.917 574.635 146.917 574.228 146.917 573.917 147.228 573.917 147.635 573.917 148.043 574.228 148.354 574.635 148.354 575.043 148.354 575.354 148.666 575.354 149.073L575.354 161.052C575.354 162.25 576.312 163.208 577.51 163.208L578.229 163.208 588.771 163.208 590.927 163.208C591.334 163.208 591.646 162.897 591.646 162.49 591.646 162.082 591.334 161.771 590.927 161.771L577.51 161.771C577.103 161.771 576.792 161.459 576.792 161.052L576.792 159.734 591.646 158.417Z"/><path d="M579.667 164.646C579.667 165.44 579.023 166.083 578.229 166.083 577.435 166.083 576.792 165.44 576.792 164.646 576.792 163.852 577.435 163.208 578.229 163.208 579.023 163.208 579.667 163.852 579.667 164.646Z"/><path d="M590.208 164.646C590.208 165.44 589.565 166.083 588.771 166.083 587.977 166.083 587.333 165.44 587.333 164.646 587.333 163.852 587.977 163.208 588.771 163.208 589.565 163.208 590.208 163.852 590.208 164.646Z"/></g></svg>