<svg width="254" height="119" xmlns="http://www.w3.org/2000/svg" xmlns:xlink="http://www.w3.org/1999/xlink" xml:space="preserve" overflow="hidden"><defs><clipPath id="clip0"><rect x="1849" y="2183" width="254" height="119"/></clipPath></defs><g clip-path="url(#clip0)" transform="translate(-1849 -2183)"><path d="M2086.62 2280.37C2086.34 2280.53 2086.14 2280.7 2085.99 2280.9 2085.84 2281.09 2085.74 2281.28 2085.69 2281.48 2085.6 2281.88 2085.79 2282.23 2086.25 2282.54 2086.7 2282.85 2087.53 2283 2088.73 2283 2089.89 2283 2090.78 2282.88 2091.39 2282.62 2092 2282.37 2092.34 2282.01 2092.42 2281.55 2092.45 2281.29 2092.41 2281.08 2092.27 2280.9 2092.13 2280.73 2091.94 2280.6 2091.68 2280.51 2091.42 2280.41 2091.11 2280.37 2090.75 2280.37ZM2004.06 2272.08C2002.27 2272.05 2000.94 2272.18 2000.06 2272.47 1999.19 2272.75 1998.7 2273.28 1998.59 2274.07 1998.5 2274.69 1998.64 2275.13 1999 2275.4 1999.36 2275.68 1999.8 2275.81 2000.33 2275.81 2000.85 2275.81 2001.33 2275.71 2001.77 2275.5 2002.21 2275.29 2002.59 2275.03 2002.91 2274.73 2003.23 2274.42 2003.47 2274.13 2003.63 2273.86ZM2091.51 2265.39C2090.79 2265.39 2090.23 2265.59 2089.81 2266 2089.4 2266.41 2089.12 2266.96 2088.97 2267.65 2088.86 2268.27 2088.88 2268.79 2089.03 2269.2 2089.17 2269.61 2089.41 2269.91 2089.74 2270.11 2090.07 2270.31 2090.43 2270.4 2090.82 2270.4 2091.48 2270.4 2092.01 2270.21 2092.42 2269.81 2092.83 2269.41 2093.1 2268.86 2093.25 2268.16 2093.44 2267.15 2093.33 2266.44 2092.93 2266.02 2092.53 2265.6 2092.05 2265.39 2091.51 2265.39ZM2050.31 2261.8 2057.23 2261.8 2053.39 2279.99 2046.48 2279.99ZM2072.75 2261.54C2073.89 2261.54 2074.9 2261.84 2075.78 2262.43 2076.66 2263.03 2077.3 2263.91 2077.7 2265.07 2078.09 2266.24 2078.11 2267.67 2077.75 2269.38L2075.55 2279.99 2068.64 2279.99 2070.91 2269.38C2071.11 2268.48 2071.04 2267.85 2070.7 2267.51 2070.36 2267.16 2069.94 2266.99 2069.43 2266.99 2068.93 2266.99 2068.39 2267.12 2067.84 2267.4 2067.28 2267.68 2066.69 2268.11 2066.06 2268.69L2063.63 2279.99 2056.79 2279.99 2060.63 2261.8 2067.28 2261.8 2066.78 2264.49C2067.62 2263.65 2068.51 2262.95 2069.44 2262.39 2070.37 2261.82 2071.48 2261.54 2072.75 2261.54ZM2027.93 2261.54C2029.09 2261.54 2030.12 2261.84 2031.02 2262.44L2032.84 2264.86 2036.2 2262.43C2037.43 2261.84 2038.67 2261.54 2039.92 2261.54 2041.09 2261.54 2042.14 2261.84 2043.04 2262.45 2043.95 2263.06 2044.61 2263.93 2045.01 2265.05 2045.41 2266.18 2045.44 2267.52 2045.11 2269.07L2042.76 2279.99 2035.9 2279.99 2038.14 2269.38C2038.33 2268.5 2038.25 2267.88 2037.92 2267.52 2037.59 2267.16 2037.13 2266.99 2036.55 2266.99 2036.2 2266.99 2035.85 2267.04 2035.49 2267.15 2035.13 2267.26 2034.76 2267.44 2034.36 2267.68 2033.97 2267.92 2033.54 2268.24 2033.08 2268.62L2033.07 2268.51 2033.08 2269.07 2030.8 2279.99 2023.91 2279.99 2026.13 2269.38C2026.31 2268.54 2026.24 2267.93 2025.93 2267.55 2025.62 2267.17 2025.16 2266.99 2024.54 2266.99 2024.07 2266.99 2023.55 2267.12 2022.99 2267.4 2022.43 2267.68 2021.83 2268.11 2021.2 2268.69L2018.77 2279.99 2011.94 2279.99 2015.77 2261.8 2022.43 2261.8 2021.93 2264.49C2022.77 2263.68 2023.66 2262.98 2024.6 2262.4 2025.55 2261.83 2026.66 2261.54 2027.93 2261.54ZM2003.37 2261.5C2004.66 2261.5 2005.85 2261.64 2006.94 2261.92 2008.03 2262.2 2008.96 2262.66 2009.72 2263.29 2010.48 2263.92 2011 2264.76 2011.29 2265.82 2011.59 2266.88 2011.56 2268.19 2011.23 2269.75L2009.02 2279.99 2002.72 2279.99 2002.87 2278.02C2002.09 2278.85 2001.26 2279.45 2000.37 2279.8 1999.48 2280.15 1998.38 2280.33 1997.07 2280.33 1995.84 2280.33 1994.77 2280.06 1993.88 2279.53 1992.99 2279 1992.35 2278.25 1991.96 2277.29 1991.56 2276.33 1991.48 2275.2 1991.71 2273.9 1991.92 2272.77 1992.39 2271.85 1993.12 2271.15 1993.85 2270.44 1994.79 2269.9 1995.95 2269.51 1997.1 2269.13 1998.43 2268.87 1999.93 2268.72 2001.44 2268.58 2003.06 2268.51 2004.82 2268.51L2004.89 2268.19C2005.02 2267.69 2005 2267.27 2004.85 2266.94 2004.69 2266.61 2004.45 2266.37 2004.11 2266.21 2003.78 2266.06 2003.42 2265.98 2003.02 2265.98 2002.45 2265.98 2001.89 2266.12 2001.34 2266.39 2000.79 2266.66 2000.47 2267.13 2000.37 2267.78L1993.99 2267.78C1994.27 2265.57 1995.24 2263.97 1996.9 2262.98 1998.57 2262 2000.73 2261.5 2003.37 2261.5ZM2103 2258.79 2102.2 2263.47C2101.19 2263.47 2100.21 2263.55 2099.26 2263.71L2098.42 2264.25 2099.59 2268.19C2099.4 2269.3 2098.94 2270.31 2098.2 2271.23 2097.46 2272.15 2096.45 2272.89 2095.19 2273.45 2093.92 2274.01 2092.39 2274.29 2090.6 2274.29L2087.45 2273.72 2086.52 2274.06C2086.17 2274.25 2085.96 2274.49 2085.89 2274.77 2085.86 2275.02 2086 2275.21 2086.32 2275.34 2086.64 2275.47 2087.24 2275.56 2088.12 2275.6 2089 2275.64 2090.25 2275.66 2091.88 2275.66L2092.2 2275.66C2094.83 2275.66 2096.7 2276.17 2097.81 2277.19 2098.92 2278.2 2099.32 2279.6 2099.02 2281.37 2098.69 2283.23 2097.63 2284.63 2095.82 2285.58 2094.01 2286.53 2091.5 2287 2088.28 2287 2085.94 2287 2084.11 2286.76 2082.79 2286.27 2081.47 2285.78 2080.58 2285.15 2080.1 2284.38 2079.63 2283.61 2079.46 2282.82 2079.59 2282.02 2079.77 2281.03 2080.42 2280.22 2081.56 2279.6L2082.98 2279.23 2081.45 2277.96C2081.11 2277.37 2081 2276.74 2081.11 2276.07 2081.22 2275.27 2081.65 2274.6 2082.39 2274.06L2084.98 2272.74 2083.02 2270.99C2082.49 2269.97 2082.34 2268.82 2082.58 2267.54 2082.8 2266.43 2083.27 2265.41 2084 2264.49 2084.73 2263.58 2085.74 2262.85 2087.03 2262.31 2088.33 2261.77 2089.92 2261.5 2091.81 2261.5 2093.28 2261.5 2094.55 2261.66 2095.61 2261.98L2096.16 2262.29 2097.76 2260.28C2098.5 2259.73 2099.32 2259.35 2100.22 2259.12 2101.12 2258.9 2102.05 2258.79 2103 2258.79ZM1980.01 2254.61C1981.32 2254.61 1982.61 2254.78 1983.87 2255.14 1985.13 2255.49 1986.26 2256.04 1987.28 2256.77 1988.29 2257.51 1989.09 2258.46 1989.69 2259.62 1990.28 2260.77 1990.56 2262.15 1990.52 2263.75L1983.01 2263.75C1982.97 2263.06 1982.81 2262.49 1982.54 2262.04 1982.28 2261.6 1981.87 2261.26 1981.34 2261.04 1980.8 2260.82 1980.09 2260.7 1979.22 2260.7 1977.96 2260.7 1976.91 2261.04 1976.07 2261.71 1975.24 2262.38 1974.59 2263.23 1974.12 2264.26 1973.65 2265.3 1973.32 2266.37 1973.14 2267.47 1972.96 2268.62 1972.96 2269.72 1973.14 2270.76 1973.31 2271.8 1973.72 2272.65 1974.38 2273.3 1975.03 2273.96 1975.99 2274.29 1977.25 2274.29 1978.12 2274.29 1978.86 2274.18 1979.47 2273.97 1980.09 2273.76 1980.61 2273.44 1981.01 2273 1981.42 2272.56 1981.72 2272.01 1981.92 2271.35L1977.25 2271.35 1978.2 2265.83 1990.37 2265.83 1989.61 2269.31C1989.28 2270.86 1988.81 2272.3 1988.2 2273.64 1987.6 2274.98 1986.8 2276.15 1985.79 2277.16 1984.79 2278.17 1983.53 2278.96 1982.01 2279.52 1980.49 2280.08 1978.65 2280.37 1976.49 2280.37 1974.07 2280.37 1971.97 2279.84 1970.2 2278.8 1968.43 2277.75 1967.13 2276.22 1966.33 2274.2 1965.52 2272.19 1965.35 2269.73 1965.82 2266.82 1966.22 2264.34 1967.04 2262.19 1968.26 2260.36 1969.49 2258.53 1971.08 2257.12 1973.05 2256.11 1975.02 2255.11 1977.34 2254.61 1980.01 2254.61ZM2054.5 2254.46C2055.75 2254.46 2056.68 2254.76 2057.29 2255.35 2057.9 2255.95 2058.21 2256.66 2058.21 2257.51 2058.21 2258.36 2057.9 2259.1 2057.29 2259.71 2056.68 2260.32 2055.75 2260.63 2054.5 2260.63 2053.27 2260.63 2052.33 2260.32 2051.69 2259.71 2051.06 2259.1 2050.74 2258.36 2050.74 2257.51 2050.74 2256.66 2051.06 2255.95 2051.69 2255.35 2052.33 2254.76 2053.27 2254.46 2054.5 2254.46ZM2007.51 2227.1C2005.72 2227.07 2004.39 2227.2 2003.51 2227.49 2002.64 2227.77 2002.15 2228.31 2002.04 2229.09 2001.95 2229.71 2002.09 2230.15 2002.45 2230.42 2002.81 2230.7 2003.25 2230.83 2003.78 2230.83 2004.3 2230.83 2004.78 2230.73 2005.22 2230.52 2005.66 2230.31 2006.04 2230.05 2006.36 2229.75 2006.68 2229.44 2006.92 2229.15 2007.08 2228.88ZM2017.7 2216.82 2024.43 2216.82 2026.69 2221.53 2030.64 2216.82 2037.7 2216.82 2029.51 2225.95 2034.22 2234.69 2042.95 2225.22 2038.41 2216.82 2045.13 2216.82 2047.4 2221.53 2051.34 2216.82 2058.4 2216.82 2050.21 2225.95 2055.1 2235.01 2048.4 2235.01 2045.78 2229.77 2041.19 2235.01 2034.4 2235.01 2033.92 2235.01 2027.69 2235.01 2025.08 2229.77 2020.48 2235.01 2013.22 2235.01 2022.25 2225.22ZM2006.82 2216.52C2008.11 2216.52 2009.3 2216.66 2010.39 2216.94 2011.48 2217.22 2012.41 2217.68 2013.17 2218.31 2013.93 2218.94 2014.45 2219.78 2014.75 2220.84 2015.04 2221.9 2015.01 2223.21 2014.68 2224.77L2012.48 2235.01 2006.17 2235.01 2006.32 2233.04C2005.54 2233.87 2004.71 2234.47 2003.82 2234.82 2002.93 2235.17 2001.83 2235.35 2000.52 2235.35 1999.29 2235.35 1998.22 2235.08 1997.33 2234.55 1996.44 2234.02 1995.8 2233.27 1995.41 2232.31 1995.01 2231.35 1994.93 2230.22 1995.17 2228.92 1995.38 2227.79 1995.85 2226.87 1996.57 2226.17 1997.3 2225.46 1998.24 2224.92 1999.4 2224.53 2000.56 2224.15 2001.88 2223.89 2003.38 2223.74 2004.89 2223.6 2006.51 2223.53 2008.27 2223.53L2008.34 2223.21C2008.47 2222.71 2008.45 2222.29 2008.3 2221.96 2008.14 2221.63 2007.9 2221.39 2007.56 2221.23 2007.23 2221.08 2006.87 2221 2006.47 2221 2005.9 2221 2005.34 2221.14 2004.79 2221.41 2004.24 2221.68 2003.92 2222.15 2003.82 2222.8L1997.44 2222.8C1997.72 2220.59 1998.69 2218.99 2000.35 2218 2002.02 2217.02 2004.18 2216.52 2006.82 2216.52ZM1969.32 2210 1977.51 2210 1980.66 2219.25 1987.83 2210 1996.45 2210 1991.13 2235.01 1983.92 2235.01 1987.3 2219.25 1981.42 2226.87 1977.08 2226.87 1974.43 2219.25 1971.06 2235.01 1964 2235.01Z" fill="#FFFFFF" fill-rule="evenodd"/><path d="M1849 2244 1899.2 2274 1961 2246.47 1898.57 2263.79 1849 2244Z" fill="#FFFFFF" fill-rule="evenodd"/><path d="M1850 2249 1898.85 2302 1960 2254.33 1899.17 2289.46 1850 2249Z" fill="#FFFFFF" fill-rule="evenodd"/><path d="M1854 2242.49 1900.99 2238 1953 2246.02 1899.11 2255 1854 2242.49Z" fill="#595959" fill-rule="evenodd"/><path d="M1894 2215.16C1894 2213.41 1895.41 2212 1897.16 2212L1902.84 2212C1904.59 2212 1906 2213.41 1906 2215.16L1906 2242.84C1906 2244.59 1904.59 2246 1902.84 2246L1897.16 2246C1895.41 2246 1894 2244.59 1894 2242.84Z" fill="#BFBFBF" fill-rule="evenodd"/><path d="M1884 2200C1884 2190.61 1891.39 2183 1900.5 2183 1909.61 2183 1917 2190.61 1917 2200 1917 2209.39 1909.61 2217 1900.5 2217 1891.39 2217 1884 2209.39 1884 2200Z" fill="#FFFFFF" fill-rule="evenodd"/></g></svg>