<svg width="15" height="16" xmlns="http://www.w3.org/2000/svg" xmlns:xlink="http://www.w3.org/1999/xlink" xml:space="preserve" overflow="hidden"><g transform="translate(-462 -143)"><path d="M13.3594 11.8125 11.4062 9.85938C11.1406 9.59375 10.7812 9.5 10.4375 9.5625L9.75 8.875C10.3594 8.09375 10.7188 7.09375 10.7188 6.03125 10.7188 3.45312 8.60938 1.34375 6.03125 1.34375 3.45312 1.34375 1.34375 3.45312 1.34375 6.03125 1.34375 8.60938 3.45312 10.7188 6.03125 10.7188 7.09375 10.7188 8.07812 10.3594 8.875 9.75L9.5625 10.4375C9.5 10.7812 9.59375 11.1406 9.85938 11.4062L11.8125 13.3594C12.0312 13.5781 12.3125 13.6875 12.5938 13.6875 12.875 13.6875 13.1562 13.5781 13.375 13.3594 13.7812 12.9219 13.7812 12.2344 13.3594 11.8125ZM6.01562 9.76562C3.95312 9.76562 2.26562 8.07812 2.26562 6.01562 2.26562 3.95312 3.95312 2.26562 6.01562 2.26562 8.07812 2.26562 9.76562 3.95312 9.76562 6.01562 9.76562 8.07812 8.07812 9.76562 6.01562 9.76562Z" fill="#FFFFFF" transform="matrix(1 0 0 1.06667 462 143)"/></g></svg>